<?xml version="1.0" encoding="iso-8859-1"?>
<!-- Generator: Adobe Illustrator 19.0.0, SVG Export Plug-In . SVG Version: 6.00 Build 0)  -->
<svg version="1.1" id="Capa_1" xmlns="http://www.w3.org/2000/svg" xmlns:xlink="http://www.w3.org/1999/xlink" x="0px" y="0px"
	 viewBox="0 0 512.003 512.003" style="enable-background:new 0 0 512.003 512.003;" xml:space="preserve">

<g>
	<g>
		<path d="M512.002,256.001c0.1-63.833-23.783-125.374-66.917-172.429c-3.537-3.992-7.129-7.696-10.867-11.208
			c-1.807-1.763-3.727-3.388-5.582-5.093c-0.351-0.389-0.739-0.743-1.158-1.057C396.267,37.767,358.43,17.585,317.418,7.51
			c-3.8-1.033-7.6-1.846-11.283-2.492c-16.499-3.36-33.296-5.041-50.133-5.017c-55.424-0.183-109.38,17.803-153.609,51.204
			c-10.446,7.851-20.286,16.476-29.438,25.803c-27.262,27.766-47.767,61.434-59.929,98.397l-0.003,0.011l-0.005,0.014l-0.002,0.011
			c-21.621,65.16-16.138,136.276,15.215,197.352c1.933,3.863,3.979,7.612,6.158,11.204c1.176,2.038,2.552,3.929,3.781,5.929
			l0.011,0.067c0.409,1.028,1.016,1.964,1.789,2.756c29.931,47.457,74.658,83.737,127.269,103.233l0.25,0.102
			c0.805,0.296,1.568,0.68,2.376,0.967c3.988,1.479,8.087,2.846,11.967,3.921c75.45,22.926,157.26,9.703,221.646-35.825
			c3.579-2.521,7.084-5.128,10.515-7.82c51.583-40.476,85.665-99.204,95.218-164.072l0.009-0.081l0.003-0.019l0-0.006
			C511.097,280.856,512.026,268.437,512.002,256.001z M315.735,24.754c32.561,8.353,62.962,23.564,89.168,44.616l-11.48,3.85
			c-0.419-0.251-0.804-0.539-1.246-0.76l-73.754-36.875c-0.87-0.39-1.768-0.714-2.688-0.969V24.754z M308.797,50.852
			c0.63-0.308,1.366-0.308,1.996,0l73.75,36.875c0.915,0.456,1.401,1.477,1.179,2.475l-17.642,79.392
			c-0.222,1.109-1.255,1.863-2.379,1.737l-102.196-9.291c-0.853-0.07-1.588-0.63-1.883-1.434l-26.508-70.679
			c-0.404-1.068,0.068-2.269,1.092-2.775L308.797,50.852z M266.619,179.462l97.541,8.868c0.583,0.05,1.162,0.079,1.742,0.079
			c0.118,0,0.231-0.028,0.35-0.03l50.952,101.908l-47.227,85.181H260.092c-0.326-0.931-0.724-1.835-1.191-2.704l-45.714-82.282
			L266.619,179.462z M199.45,279.677c-0.658-0.186-1.325-0.337-1.999-0.451l-91.404-9.138c-1.383-0.128-2.775-0.104-4.153,0.071
			l-32.253-96.758c0.224-0.244,0.48-0.448,0.693-0.705c0.718-0.74,1.34-1.567,1.85-2.462l47.774-76.367h98.615
			c0.148,0.693,0.334,1.377,0.557,2.05l26.508,70.679c1.066,2.677,2.727,5.077,4.857,7.019L199.45,279.677z M256.001,17.068
			c14.313,0.008,28.595,1.331,42.667,3.951v15.816l-70.096,35.05c-2.367,1.197-4.461,2.871-6.15,4.917h-99.781
			c-0.101-0.34-0.121-0.677-0.24-1.017l-4.77-14.386C157.958,32.463,206.368,16.953,256.001,17.068z M35.064,165.1
			c0.678-1.655,1.431-3.272,2.145-4.909c1.526-3.5,3.109-6.969,4.798-10.382c0.893-1.804,1.819-3.59,2.757-5.369
			c1.72-3.265,3.518-6.483,5.393-9.656c0.973-1.654,1.93-3.317,2.943-4.946c2.252-3.622,4.626-7.166,7.071-10.661
			c0.73-1.044,1.407-2.123,2.155-3.156c3.235-4.469,6.629-8.824,10.18-13.067c0.892-1.066,1.852-2.079,2.763-3.13
			c2.731-3.152,5.524-6.255,8.426-9.269c1.356-1.409,2.76-2.778,4.153-4.155c2.627-2.598,5.316-5.141,8.068-7.629
			c1.52-1.371,3.045-2.735,4.603-4.071c0.912-0.782,1.882-1.51,2.807-2.28l3.123,9.377c0.215,0.586,0.141,1.239-0.2,1.762
			l-0.125,0.2l-48.417,77.446c-0.171,0.183-0.333,0.371-0.488,0.567c-0.273,0.359-0.678,0.595-1.125,0.654l-21.646,4.326
			C34.666,166.208,34.841,165.642,35.064,165.1z M49.081,375.314c-2.029-3.35-3.858-6.7-5.642-10.267
			c-17.37-33.722-26.413-71.113-26.371-109.046c0.028-23.925,3.671-47.708,10.805-70.544l26.062-5.199l33.274,99.821
			c-1.209,2.188-1.975,4.592-2.254,7.077l-8.828,79.446l-26.296,9.891C49.596,376.089,49.315,375.72,49.081,375.314z
			 M162.135,475.495c-41.609-17.768-77.307-47.003-102.927-84.294l21.897-8.236c0.424,0.528,0.877,1.032,1.355,1.511l75.283,65.871
			c1.328,1.13,2.806,2.071,4.392,2.796V475.495z M168.985,437.506l-75.287-65.875c-0.547-0.48-0.826-1.197-0.746-1.921l8.967-80.671
			c0.127-1.125,1.076-1.976,2.208-1.979l0.221,0.012l91.396,9.138c0.731,0.069,1.381,0.495,1.737,1.138l46.504,83.704
			c0.537,0.975,0.276,2.196-0.613,2.867l-71.592,53.696C170.938,438.236,169.777,438.191,168.985,437.506z M186.631,484.597
			L186.631,484.597c-2.477-0.69-4.953-1.58-7.429-2.434v-29.157c0.989-0.497,1.933-1.08,2.821-1.742l71.588-53.692
			c1.843-1.384,3.419-3.091,4.654-5.037h109.293l17.603,61.5c0.232,0.741,0.512,1.466,0.837,2.171
			C327.033,494.748,254.01,505.147,186.631,484.597z M490.758,299.926c-0.324,1.749-0.663,3.495-1.027,5.234
			c-0.439,2.098-0.915,4.187-1.41,6.27c-0.406,1.706-0.815,3.411-1.258,5.105c-0.551,2.105-1.149,4.194-1.757,6.281
			c-0.481,1.649-0.953,3.302-1.469,4.939c-0.668,2.116-1.392,4.211-2.118,6.306c-0.544,1.57-1.068,3.147-1.645,4.704
			c-0.818,2.21-1.705,4.393-2.589,6.577c-0.567,1.403-1.104,2.819-1.697,4.21c-1.082,2.534-2.243,5.033-3.412,7.528
			c-0.472,1.007-0.905,2.031-1.391,3.031c-1.692,3.485-3.467,6.927-5.324,10.327c-0.333,0.609-0.702,1.199-1.041,1.805
			c-1.553,2.78-3.136,5.544-4.798,8.26c-0.679,1.109-1.407,2.187-2.104,3.285c-1.381,2.178-2.766,4.354-4.217,6.487
			c-0.831,1.221-1.708,2.413-2.561,3.62c-1.392,1.966-2.787,3.93-4.239,5.854c-0.936,1.241-1.909,2.455-2.869,3.679
			c-1.44,1.835-2.889,3.662-4.383,5.455c-1.027,1.232-2.082,2.443-3.134,3.656c-1.504,1.732-3.023,3.452-4.577,5.142
			c-1.102,1.198-2.222,2.379-3.348,3.555c-1.577,1.646-3.177,3.27-4.801,4.872c-1.173,1.156-2.357,2.301-3.553,3.434
			c-1.647,1.558-3.32,3.091-5.018,4.6c-1.238,1.106-2.478,2.209-3.741,3.29c-1.724,1.477-3.485,2.916-5.255,4.345
			c-1.298,1.048-2.591,2.103-3.914,3.125c-0.49,0.379-1,0.735-1.493,1.111l-16.581-57.963l-0.258-0.854
			c-0.178-0.568-0.128-1.184,0.137-1.717l48.097-86.724l0.383-0.671c0.356-0.657,1.011-1.098,1.754-1.179
			c0.283-0.016,0.566-0.047,0.846-0.092l56.296,0C491.112,297.851,490.949,298.892,490.758,299.926z M493.583,279.841
			c-0.295-0.014-0.577-0.094-0.873-0.094h-58.208c-0.779-0.012-1.557,0.056-2.321,0.204c-0.328,0.036-0.628,0.168-0.952,0.221
			l-49.837-99.678c1.608-2.138,2.749-4.59,3.347-7.198l17.642-79.396c0.411-1.905,0.531-3.861,0.355-5.802l17.124-5.743
			c0.838,0.794,1.727,1.524,2.555,2.332c3.467,3.263,6.704,6.6,9.992,10.308c40.3,43.926,62.618,101.393,62.529,161.005
			C494.9,263.966,494.449,271.923,493.583,279.841z" stroke="grey" fill="grey"/>
    		<rect class="svg-btn" width="30px" onclick="change_tab('VISUALIZATION from ball svg')" />
	</g>
</g>
<g>
</g>
<g>
</g>
<g>
</g>
<g>
</g>
<g>
</g>
<g>
</g>
<g>
</g>
<g>
</g>
<g>
</g>
<g>
</g>
<g>
</g>
<g>
</g>
<g>
</g>
<g>
</g>
<g>
</g>
</svg>
